<svg width="50" height="50" viewBox="0 0 50 50" fill="none" xmlns="http://www.w3.org/2000/svg">
<path d="M49.083 22.7852L27.2148 0.916992C25.9922 -0.305664 24.0088 -0.305664 22.7852 0.916992L0.916992 22.7852C-0.305664 24.0088 -0.305664 25.9912 0.916992 27.2148L22.7852 49.083C24.0078 50.3066 25.9912 50.3066 27.2148 49.083L49.083 27.2148C50.3057 25.9912 50.3057 24.0088 49.083 22.7852ZM39.2217 24.0117L30.998 31.6025C30.498 32.0645 29.6865 31.71 29.6865 31.0283V25.7813H20.3115V32.0313C20.3115 32.4629 19.9619 32.8125 19.5303 32.8125H16.4053C15.9736 32.8125 15.624 32.4629 15.624 32.0313V24.2188C15.624 22.4932 17.0234 21.0938 18.749 21.0938H29.6865V15.8467C29.6865 15.166 30.4971 14.8105 30.998 15.2725L39.2217 22.8633C39.5566 23.1729 39.5566 23.7022 39.2217 24.0117Z" fill="#E04934"/>
</svg>
